<svg class="img-fluid" id="outputsvg" xmlns="http://www.w3.org/2000/svg" style="transform: none; transform-origin: 50% 50%; cursor: move;" width="140" height="140" viewBox="0 0 1400 1400"><g id="lygPVMpZJEw9moJ2iNpk5H" fill="rgb(255,37,92)" style="transform: none;"><g><path id="pCNKcBbaB" d="M566 1070 c-15 -5 -37 -17 -47 -26 -18 -16 -20 -16 -32 0 -15 21 -52 18 -52 -4 0 -9 12 -16 30 -18 24 -3 75 -42 75 -58 0 -2 -25 -31 -55 -64 -30 -33 -55 -65 -55 -70 0 -16 46 -56 80 -70 l29 -12 -54 -65 c-54 -62 -63 -82 -47 -97 4 -4 8 -33 8 -65 2 -113 40 -168 149 -216 51 -22 61 -24 70 -11 6 8 22 16 35 18 17 2 26 12 32 33 4 17 16 55 27 85 11 30 20 76 21 102 0 26 5 50 10 53 6 3 7 17 4 31 -5 19 -2 24 13 24 11 0 27 -6 37 -13 18 -13 18 -16 -3 -71 -37 -100 -23 -163 51 -219 53 -40 144 -47 181 -14 7 7 22 17 32 23 11 6 28 26 38 45 16 29 18 50 13 146 -4 77 -2 114 6 119 7 5 5 11 -7 20 -16 12 -16 14 -1 29 25 26 20 40 -44 112 -48 54 -57 69 -45 76 34 19 -4 67 -52 67 -13 0 -23 6 -23 14 0 22 -42 48 -55 35 -7 -7 -3 -16 14 -30 21 -17 22 -22 10 -30 -7 -5 -17 -9 -21 -9 -15 0 -8 -39 10 -49 15 -9 10 -17 -39 -68 -31 -32 -65 -76 -75 -98 -34 -74 -67 -83 -104 -27 -35 51 -35 49 -1 57 42 9 81 42 81 69 0 13 -22 47 -55 83 -54 60 -54 61 -35 78 11 10 20 24 20 31 0 9 10 11 35 7 28 -5 35 -2 35 11 0 22 -24 30 -49 16 -16 -8 -26 -7 -45 5 -29 19 -111 28 -150 15z m119 -43 c13 -10 15 -16 6 -21 -7 -5 -20 -1 -30 8 -22 20 -55 21 -71 1 -13 -16 -40 -21 -40 -7 0 32 98 45 135 19z m359 -106 c3 -5 -11 -11 -32 -14 -41 -5 -55 -1 -47 14 8 12 72 12 79 0z"></path><path id="p15dM65XSp" d="M352 1039 c-27 -10 -24 -35 4 -31 34 5 44 11 44 27 0 17 -14 18 -48 4z"></path><path id="peD3wQ60o" d="M840 1037 c0 -19 57 -41 66 -26 8 14 -5 26 -38 34 -21 6 -28 4 -28 -8z"></path><path id="p4c09rssV" d="M273 1003 c-13 -8 -23 -21 -23 -28 0 -7 -13 -18 -30 -25 -33 -14 -40 -43 -13 -58 14 -8 8 -20 -46 -80 -35 -39 -60 -75 -57 -80 3 -5 -8 -22 -24 -38 -38 -37 -37 -50 0 -58 34 -6 48 -30 33 -55 -5 -9 -16 -39 -23 -68 -11 -41 -11 -60 -2 -91 17 -56 78 -109 135 -117 51 -8 103 1 114 18 5 7 17 17 28 23 11 6 28 26 38 45 16 29 18 50 13 146 -4 82 -2 113 7 117 8 3 6 9 -7 20 -17 14 -17 16 -2 31 9 9 16 22 16 28 0 7 -28 43 -61 80 -57 63 -60 69 -44 81 25 18 13 44 -25 58 -30 10 -31 11 -11 25 12 8 21 21 21 29 0 18 -9 17 -37 -3z m31 -82 c3 -5 -11 -11 -32 -14 -41 -5 -55 -1 -47 14 8 12 72 12 79 0z"></path></g></g></svg>