<svg class="img-fluid safari" id="outputsvg" xmlns="http://www.w3.org/2000/svg" style="transform: none; transform-origin: 50% 50%; cursor: move;" width="123" height="123" viewBox="0 0 1230 1230"><g id="l2HZCEgcSC5598WbIVUcp1I" fill="rgb(255,37,92)" style="transform: none;"><g><path id="pvOs9xor" d="M543 702 l-53 -25 0 -72 0 -71 61 -29 60 -29 57 29 57 30 0 68 0 68 -53 30 c-29 16 -58 28 -65 28 -7 -1 -36 -13 -64 -27z"></path><path id="p17EwNydCk" d="M202 572 l-53 -27 3 -70 3 -70 56 -29 55 -29 60 29 59 29 3 70 3 70 -56 28 c-30 15 -61 27 -68 26 -6 0 -36 -12 -65 -27z"></path><path id="pd109rYPk" d="M885 571 l-50 -28 0 -69 0 -69 59 -29 60 -29 55 29 56 29 3 70 3 70 -56 28 c-30 15 -61 27 -68 27 -6 -1 -34 -13 -62 -29z"></path><path id="p17JMHX5Cd" d="M548 389 l-58 -29 0 -68 0 -68 60 -29 60 -29 60 29 60 29 0 68 0 68 -60 30 c-33 16 -61 30 -62 30 -2 -1 -29 -14 -60 -31z"></path></g></g><g id="l1WN3pRcGUiD4GJYOruwBdF" fill="rgb(201,96,114)" style="transform: none;"><g><path id="pZHJ0dePN" d="M498 978 l-108 -51 0 -39 c0 -46 -13 -49 -75 -13 l-43 26 -109 -49 -108 -49 0 -96 c0 -121 19 -136 23 -19 l3 83 84 40 c47 21 93 39 102 39 10 0 41 -13 68 -28 42 -23 50 -32 53 -59 2 -21 9 -33 18 -33 11 0 14 18 14 85 l0 85 86 40 c48 22 94 40 102 40 8 0 54 -21 103 -47 l88 -47 3 -75 c2 -46 7 -76 15 -78 7 -3 13 9 15 28 3 28 11 38 60 66 l56 33 96 -43 95 -42 3 -84 c2 -58 7 -86 16 -89 10 -3 12 19 10 99 l-3 102 -108 49 -108 49 -53 -31 c-30 -16 -56 -30 -59 -30 -3 0 -7 16 -9 36 -3 35 -7 39 -103 91 -55 30 -104 56 -110 58 -5 2 -58 -20 -117 -47z"></path><path id="p14Wn9zyTj" d="M543 702 c-29 -14 -53 -29 -53 -34 0 -5 24 4 53 19 28 15 61 31 72 34 l20 7 -20 0 c-11 0 -44 -12 -72 -26z"></path><path id="p13PRxc4vM" d="M492 594 l-2 -60 60 -29 60 -29 51 24 c27 13 53 28 55 32 3 5 -20 -4 -50 -19 l-56 -27 -54 27 -55 26 -4 58 -3 58 -2 -61z"></path><path id="pwXHmxgQY" d="M203 572 l-53 -26 0 -67 c0 -52 4 -70 18 -80 14 -11 15 -11 5 1 -8 8 -13 41 -13 77 l0 63 51 26 c29 14 59 24 68 21 9 -3 25 -8 36 -12 13 -4 12 -1 -5 9 -34 21 -46 19 -107 -12z"></path><path id="pgqKIF3O" d="M910 584 c-17 -10 -18 -13 -5 -9 46 16 54 16 93 -4 57 -29 67 -26 12 4 -53 28 -66 30 -100 9z"></path><path id="piVvCif4H" d="M841 546 c-7 -9 -11 -40 -9 -78 l3 -63 58 -29 59 -28 50 23 c27 13 52 27 55 32 3 4 -19 -4 -48 -18 l-52 -27 -59 28 -58 28 0 62 c0 49 4 65 18 73 9 6 12 11 6 11 -6 0 -17 -6 -23 -14z"></path><path id="pcHh3VhA5" d="M548 389 c-32 -16 -58 -32 -58 -34 0 -5 119 52 129 61 13 12 -22 -1 -71 -27z"></path><path id="pddnjRAfW" d="M342 395 c-44 -24 -47 -35 -4 -15 23 11 42 23 42 25 0 8 -13 4 -38 -10z"></path><path id="ph8RLRsz4" d="M492 285 l-2 -61 55 -27 c30 -15 55 -25 55 -22 0 3 -22 16 -49 30 l-50 25 -4 57 -3 58 -2 -60z"></path></g></g></svg>